<svg width="235" height="23" viewBox="0 0 235 23" fill="none" xmlns="http://www.w3.org/2000/svg">
<path d="M18.6474 10.976C18.6474 4.956 14.9514 0.672 9.43542 0.672C3.91942 0.672 0.223424 4.956 0.223424 10.976C0.223424 16.996 3.91942 21.308 9.43542 21.308C11.4794 21.308 13.2994 20.72 14.7554 19.656L17.2754 22.176L17.8914 21.56L15.4274 19.096C17.4714 17.248 18.6474 14.392 18.6474 10.976ZM9.43542 20.524C4.70342 20.524 1.11942 16.688 1.11942 10.976C1.11942 5.264 4.70342 1.456 9.43542 1.456C14.1674 1.456 17.7514 5.264 17.7514 10.976C17.7514 14.168 16.6314 16.8 14.8114 18.48L12.4034 16.072L11.7874 16.688L14.1114 19.012C12.7954 19.992 11.1994 20.524 9.43542 20.524ZM43.8872 14.056V0.979999H42.9912V14.056C42.9912 18.424 40.9192 20.524 36.6912 20.524C32.4632 20.524 30.3912 18.424 30.3912 14.056V0.979999H29.4952V14.056C29.4952 18.704 31.6792 21.308 36.6912 21.308C41.7032 21.308 43.8872 18.704 43.8872 14.056ZM66.137 14.196L68.769 21H69.665L61.937 0.979999H60.873L53.201 21H54.097L56.729 14.196H66.137ZM57.009 13.412L61.377 2.016H61.433L65.829 13.412H57.009ZM79.9554 21H80.8514V12.18H87.9354C93.6754 12.18 92.1634 20.16 93.2274 21H94.2074V20.832C93.0594 20.496 94.4594 12.404 89.3914 11.816V11.76C92.1074 11.256 93.8434 9.464 93.8434 6.58C93.8434 2.744 91.4074 0.979999 87.7954 0.979999H79.9554V21ZM80.8514 1.764H87.2634C90.9594 1.764 92.9474 3.192 92.9474 6.58C92.9474 9.772 90.5394 11.396 87.2634 11.396H80.8514V1.764ZM116.509 14.196L119.141 21H120.037L112.309 0.979999H111.245L103.573 21H104.469L107.101 14.196H116.509ZM107.381 13.412L111.749 2.016H111.805L116.201 13.412H107.381ZM130.327 21H131.223V2.296H131.279L144.047 21H145.167V0.979999H144.271V19.74H144.215L131.447 0.979999H130.327V21ZM162.951 21H163.847V1.764H170.987V0.979999H155.811V1.764H162.951V21ZM181.712 0.979999V21H182.608V0.979999H181.712ZM194.591 21H195.487V2.296H195.543L208.311 21H209.431V0.979999H208.535V19.74H208.479L195.711 0.979999H194.591V21ZM222.232 9.968V1.764H234.496V0.979999H221.336V21H234.776V20.216H222.232V10.752H233.516V9.968H222.232Z" fill="white"/>
</svg>
